<svg width="20" height="20" viewBox="0 0 20 20" fill="none" xmlns="http://www.w3.org/2000/svg">
<path d="M9.75 0C4.37391 0 0 4.37391 0 9.75C0 15.1261 4.37391 19.5 9.75 19.5C15.1261 19.5 19.5 15.1261 19.5 9.75C19.5 4.37391 15.1261 0 9.75 0ZM13.5 12.3C13.4998 12.6182 13.3732 12.9233 13.1483 13.1483C12.9233 13.3732 12.6182 13.4998 12.3 13.5H7.2C6.88182 13.4998 6.57674 13.3732 6.35175 13.1483C6.12676 12.9233 6.00025 12.6182 6 12.3V7.2C6.00025 6.88182 6.12676 6.57674 6.35175 6.35175C6.57674 6.12676 6.88182 6.00025 7.2 6H12.3C12.6182 6.00025 12.9233 6.12676 13.1483 6.35175C13.3732 6.57674 13.4998 6.88182 13.5 7.2V12.3Z" fill="#FDFDFD"/>
</svg>
