<svg width="10" height="10" viewBox="0 0 10 10" fill="none" xmlns="http://www.w3.org/2000/svg">
<path d="M0.454534 0.454545C0.203495 0.705583 0.203496 1.1126 0.454534 1.36363L4.09089 4.99999L0.454514 8.63637C0.203476 8.88741 0.203476 9.29443 0.454514 9.54546C0.705552 9.7965 1.11257 9.7965 1.3636 9.54546L4.99998 5.90908L8.63634 9.54545C8.88738 9.79648 9.2944 9.79648 9.54543 9.54545C9.79647 9.29441 9.79647 8.88739 9.54543 8.63636L5.90907 4.99999L9.54541 1.36365C9.79645 1.11261 9.79645 0.7056 9.54541 0.454562C9.29438 0.203523 8.88736 0.203524 8.63632 0.454562L4.99998 4.0909L1.36362 0.454545C1.11259 0.203506 0.705572 0.203506 0.454534 0.454545Z" fill="#FDFDFD"/>
</svg>
