<svg width="20" height="18" viewBox="0 0 20 18" fill="none" xmlns="http://www.w3.org/2000/svg">
<path fill-rule="evenodd" clip-rule="evenodd" d="M16.5867 5.6321C17.2996 5.7681 17.9469 6.01546 18.4648 6.35564C19.4691 7.01461 20 8.00407 20 9.21668C20 11.5313 18.3062 12.913 15.4688 12.913H10.625V7.74783C10.625 7.66043 10.6078 7.57394 10.5745 7.4936C10.5412 7.41327 10.4924 7.34076 10.4312 7.28046C10.3699 7.22017 10.2974 7.17335 10.2182 7.14284C10.1389 7.11234 10.0544 7.09877 9.96992 7.10298C9.63359 7.12033 9.375 7.41854 9.375 7.76599V12.913H5.3125C2.18477 12.913 0 11.0164 0 8.29663C0 6.92301 0.535156 5.76366 1.54648 4.94327C2.24492 4.37752 3.15898 3.98287 4.21875 3.78514C4.31725 3.7668 4.41006 3.72437 4.48944 3.6614C4.56881 3.59843 4.63244 3.51674 4.675 3.42317C5.0576 2.59333 5.61797 1.86431 6.31367 1.2913C7.34375 0.447114 8.61914 0 10 0C11.5707 0 13.0527 0.583104 14.1738 1.64238C15.1328 2.54831 15.7867 3.74357 16.0938 5.13616C16.1199 5.25959 16.1806 5.37237 16.2682 5.46053C16.3558 5.54868 16.4666 5.60834 16.5867 5.6321ZM7.9689 14.3748L9.38336 15.8311V12.9131H10.6167V15.8311L12.0311 14.3748C12.1475 14.2586 12.3035 14.1942 12.4655 14.1956C12.6274 14.197 12.7824 14.2641 12.8968 14.3823C13.0112 14.5006 13.0759 14.6605 13.0769 14.8276C13.0779 14.9946 13.0152 15.1553 12.9022 15.275L10.4355 17.8143C10.3199 17.9332 10.1633 18 10 18C9.83673 18 9.68011 17.9332 9.5645 17.8143L7.09788 15.275C6.98488 15.1553 6.92211 14.9946 6.92311 14.8276C6.92411 14.6605 6.98881 14.5006 7.10323 14.3823C7.21765 14.2641 7.37259 14.197 7.53458 14.1956C7.69656 14.1942 7.85258 14.2586 7.9689 14.3748Z" fill="#FDFDFD"/>
</svg>
