<svg width="20" height="16" viewBox="0 0 20 16" fill="none" xmlns="http://www.w3.org/2000/svg">
<path fill-rule="evenodd" clip-rule="evenodd" d="M9.83686 1.33334H16.3323C17.6189 1.33334 18.6656 2.04667 18.6656 3.33334H1.33228V2.33334C1.33294 1.7147 1.57898 1.12159 2.01642 0.684153C2.45387 0.246711 3.04697 0.000666213 3.66561 4.45186e-06H6.82769C7.28912 -0.000898565 7.74037 0.135594 8.12394 0.392088L9.28228 1.16667C9.44654 1.27596 9.63957 1.33397 9.83686 1.33334ZM3.00929 16H16.9885C17.6007 15.9993 18.1881 15.758 18.6241 15.3281C19.0601 14.8983 19.3096 14.3143 19.3189 13.7021L19.9947 6.83794V6.82627C20.0167 6.55122 19.9816 6.27459 19.8915 6.01378C19.8014 5.75297 19.6584 5.51362 19.4713 5.31079C19.2842 5.10795 19.0572 4.94601 18.8045 4.83517C18.5519 4.72432 18.279 4.66696 18.003 4.66669H1.99888C1.72288 4.66684 1.4499 4.72412 1.19712 4.83492C0.944336 4.94571 0.717222 5.10763 0.530067 5.31048C0.342912 5.51333 0.199767 5.75272 0.10964 6.01359C0.0195132 6.27445 -0.0156453 6.55115 0.00637708 6.82627V6.83794L0.678877 13.7021C0.68817 14.3143 0.937699 14.8983 1.37365 15.3281C1.8096 15.758 2.39705 15.9993 3.00929 16Z" fill="#FDFDFD"/>
</svg>
