<svg width="20" height="19" viewBox="0 0 20 19" fill="none" xmlns="http://www.w3.org/2000/svg">
<path fill-rule="evenodd" clip-rule="evenodd" d="M10 0C4.47768 0 0 4.36406 0 9.74174C0 14.0464 2.86607 17.6937 6.83929 18.983C6.89502 18.9945 6.9519 19.0002 7.00893 19C7.37946 19 7.52232 18.7413 7.52232 18.5165C7.52232 18.4128 7.52056 18.2344 7.5182 17.9967L7.5182 17.9965L7.5182 17.9964C7.51526 17.6996 7.51141 17.3103 7.50893 16.8583C7.17814 16.9319 6.83974 16.9703 6.5 16.9728C4.57589 16.9728 4.13839 15.552 4.13839 15.552C3.68304 14.4281 3.02679 14.127 3.02679 14.127C2.15625 13.546 3.02232 13.529 3.08929 13.529H3.09375C4.09821 13.6138 4.625 14.5384 4.625 14.5384C5.125 15.3696 5.79464 15.6029 6.39286 15.6029C6.78841 15.5954 7.17784 15.5087 7.53571 15.3484C7.625 14.7208 7.88393 14.2924 8.16964 14.0464C5.95089 13.8004 3.61607 12.9649 3.61607 9.23281C3.61607 8.1683 4.00446 7.29888 4.64286 6.62031C4.54018 6.37433 4.19643 5.38192 4.74107 4.04174C4.81413 4.02513 4.88921 4.018 4.96429 4.02053C5.32589 4.02053 6.14286 4.15201 7.49107 5.04263C9.12926 4.60721 10.8618 4.60721 12.5 5.04263C13.8482 4.15201 14.6652 4.02053 15.0268 4.02053C15.1019 4.018 15.1769 4.02513 15.25 4.04174C15.7946 5.38192 15.4509 6.37433 15.3482 6.62031C15.9866 7.30312 16.375 8.17254 16.375 9.23281C16.375 12.9734 14.0357 13.7962 11.808 14.0379C12.1652 14.3391 12.4866 14.9328 12.4866 15.8404C12.4866 16.7117 12.4806 17.471 12.4766 17.9733V17.9733C12.4747 18.2216 12.4732 18.4071 12.4732 18.5123C12.4732 18.7413 12.6116 19 12.9821 19C13.0421 19.0002 13.102 18.9946 13.1607 18.983C17.1384 17.6937 20 14.0422 20 9.74174C20 4.36406 15.5223 0 10 0ZM8 7.5C8.27614 7.5 8.5 7.72386 8.5 8V10C8.5 10.2761 8.27614 10.5 8 10.5C7.72386 10.5 7.5 10.2761 7.5 10V8C7.5 7.72386 7.72386 7.5 8 7.5ZM12.5 8C12.5 7.72386 12.2761 7.5 12 7.5C11.7239 7.5 11.5 7.72386 11.5 8V10C11.5 10.2761 11.7239 10.5 12 10.5C12.2761 10.5 12.5 10.2761 12.5 10V8Z" fill="#FDFDFD"/>
</svg>
