<svg width="20" height="20" viewBox="0 0 20 20" fill="none" xmlns="http://www.w3.org/2000/svg">
<path d="M9.75 0C4.37391 0 0 4.37391 0 9.75C0 15.1261 4.37391 19.5 9.75 19.5C15.1261 19.5 19.5 15.1261 19.5 9.75C19.5 4.37391 15.1261 0 9.75 0ZM8.25 12.75C8.25 12.9489 8.17098 13.1397 8.03033 13.2803C7.88968 13.421 7.69891 13.5 7.5 13.5C7.30109 13.5 7.11032 13.421 6.96967 13.2803C6.82902 13.1397 6.75 12.9489 6.75 12.75V6.75C6.75 6.55109 6.82902 6.36032 6.96967 6.21967C7.11032 6.07902 7.30109 6 7.5 6C7.69891 6 7.88968 6.07902 8.03033 6.21967C8.17098 6.36032 8.25 6.55109 8.25 6.75V12.75ZM12.75 12.75C12.75 12.9489 12.671 13.1397 12.5303 13.2803C12.3897 13.421 12.1989 13.5 12 13.5C11.8011 13.5 11.6103 13.421 11.4697 13.2803C11.329 13.1397 11.25 12.9489 11.25 12.75V6.75C11.25 6.55109 11.329 6.36032 11.4697 6.21967C11.6103 6.07902 11.8011 6 12 6C12.1989 6 12.3897 6.07902 12.5303 6.21967C12.671 6.36032 12.75 6.55109 12.75 6.75V12.75Z" fill="#FDFDFD"/>
</svg>
