<svg width="10" height="10" viewBox="0 0 10 10" fill="none" xmlns="http://www.w3.org/2000/svg">
<path fill-rule="evenodd" clip-rule="evenodd" d="M10 5.80645V2.58065C10 1.1554 8.84461 0 7.41935 0H4.19355C3.05904 0 2.09552 0.732088 1.74963 1.74963C0.732089 2.09552 1.72662e-07 3.05904 9.61365e-08 4.19355L0 7.41935C-9.61365e-08 8.84461 1.15539 10 2.58065 10H5.80645C6.94096 10 7.90448 9.26791 8.25037 8.25037C9.26791 7.90448 10 6.94096 10 5.80645ZM7.09689 8.3871C6.80263 8.77885 6.33413 9.03226 5.80645 9.03226H2.58065C1.68986 9.03226 0.967742 8.31014 0.967742 7.41935V4.19355C0.967742 3.66587 1.22115 3.19737 1.6129 2.90311L1.6129 5.80645C1.6129 7.2317 2.7683 8.3871 4.19355 8.3871H7.09689ZM7.41935 7.41935V4.19355C7.41935 3.30277 6.69723 2.58065 5.80645 2.58065H2.58065V5.80645C2.58065 6.69723 3.30277 7.41935 4.19355 7.41935H7.41935ZM8.3871 7.09689V4.19355C8.3871 2.7683 7.2317 1.6129 5.80645 1.6129L2.90311 1.6129C3.19737 1.22115 3.66587 0.967742 4.19355 0.967742H7.41935C8.31014 0.967742 9.03226 1.68986 9.03226 2.58065V5.80645C9.03226 6.33414 8.77885 6.80263 8.3871 7.09689Z" fill="#FDFDFD"/>
</svg>
