<svg width="20" height="20" viewBox="0 0 20 20" fill="none" xmlns="http://www.w3.org/2000/svg">
<path d="M9.75 0C4.37391 0 0 4.37391 0 9.75C0 15.1261 4.37391 19.5 9.75 19.5C15.1261 19.5 19.5 15.1261 19.5 9.75C19.5 4.37391 15.1261 0 9.75 0ZM13.2548 10.1859L7.89 13.4269C7.8131 13.4729 7.72533 13.4977 7.6357 13.4987C7.54606 13.4996 7.45778 13.4767 7.37992 13.4323C7.30205 13.3879 7.23741 13.3236 7.19261 13.2459C7.14781 13.1683 7.12448 13.0801 7.125 12.9905V6.50953C7.12448 6.41989 7.14781 6.33173 7.19261 6.25408C7.23741 6.17643 7.30205 6.1121 7.37992 6.06768C7.45778 6.02326 7.54606 6.00036 7.6357 6.00131C7.72533 6.00227 7.8131 6.02705 7.89 6.07312L13.2548 9.31406C13.3296 9.35962 13.3914 9.42365 13.4343 9.5C13.4772 9.57634 13.4997 9.66243 13.4997 9.75C13.4997 9.83757 13.4772 9.92366 13.4343 10C13.3914 10.0763 13.3296 10.1404 13.2548 10.1859V10.1859Z" fill="#FDFDFD"/>
</svg>
